<svg width="18" height="18" viewBox="0 0 18 18" fill="none" xmlns="http://www.w3.org/2000/svg">
<path d="M1.74304 8.54907C1.83162 8.61573 1.93246 8.66429 2.03982 8.69196C2.14717 8.71963 2.25893 8.72587 2.36869 8.71033C2.47846 8.69479 2.58409 8.65777 2.67954 8.60138C2.77499 8.545 2.8584 8.47036 2.92499 8.38172C3.23935 7.96243 3.64703 7.6221 4.11573 7.38769C4.58444 7.15329 5.10129 7.03125 5.62534 7.03125C6.14939 7.03125 6.66624 7.15329 7.13495 7.38769C7.60365 7.6221 8.01134 7.96243 8.32569 8.38172C8.46006 8.56063 8.66 8.67885 8.88152 8.71036C9.10304 8.74188 9.32801 8.68411 9.50694 8.54977C9.57021 8.50174 9.62653 8.44519 9.67429 8.38172C9.98864 7.96243 10.3963 7.6221 10.865 7.38769C11.3337 7.15329 11.8506 7.03125 12.3746 7.03125C12.8987 7.03125 13.4155 7.15329 13.8842 7.38769C14.353 7.6221 14.7606 7.96243 15.075 8.38172C15.1409 8.47192 15.2241 8.54812 15.3197 8.60591C15.4153 8.6637 15.5214 8.70193 15.6319 8.71838C15.7425 8.73483 15.8551 8.72916 15.9634 8.70172C16.0717 8.67428 16.1735 8.62561 16.2628 8.55853C16.3522 8.49144 16.4273 8.40729 16.4838 8.31094C16.5404 8.21459 16.5772 8.10797 16.5923 7.99727C16.6073 7.88657 16.6002 7.77398 16.5713 7.66605C16.5425 7.55811 16.4925 7.45698 16.4243 7.36852C15.9549 6.74008 15.3459 6.22931 14.6454 5.87649C14.9519 5.4572 15.1364 4.96121 15.1783 4.4435C15.2202 3.92579 15.118 3.40658 14.8829 2.94344C14.6477 2.48029 14.289 2.0913 13.8463 1.81958C13.4037 1.54786 12.8944 1.40402 12.375 1.40402C11.8556 1.40402 11.3463 1.54786 10.9037 1.81958C10.461 2.0913 10.1022 2.48029 9.86712 2.94344C9.63201 3.40658 9.52975 3.92579 9.57166 4.4435C9.61358 4.96121 9.79804 5.4572 10.1046 5.87649C9.70422 6.07728 9.33268 6.33104 8.99999 6.63094C8.66734 6.33079 8.2958 6.07679 7.89538 5.87578C8.20194 5.4565 8.3864 4.96051 8.42832 4.44279C8.47023 3.92508 8.36797 3.40588 8.13286 2.94273C7.89775 2.47959 7.53898 2.09059 7.09631 1.81887C6.65365 1.54715 6.14439 1.40332 5.62499 1.40332C5.10559 1.40332 4.59633 1.54715 4.15367 1.81887C3.711 2.09059 3.35223 2.47959 3.11712 2.94273C2.88201 3.40588 2.77975 3.92508 2.82166 4.44279C2.86358 4.96051 3.04804 5.4565 3.3546 5.87578C2.65405 6.2286 2.04507 6.73938 1.57569 7.36782C1.44128 7.54666 1.3834 7.77157 1.41478 7.99309C1.44616 8.21461 1.56423 8.41459 1.74304 8.54907ZM12.375 3.09352C12.5975 3.09352 12.815 3.1595 13 3.28312C13.185 3.40673 13.3292 3.58243 13.4144 3.788C13.4995 3.99357 13.5218 4.21977 13.4784 4.438C13.435 4.65622 13.3278 4.85668 13.1705 5.01401C13.0131 5.17135 12.8127 5.27849 12.5945 5.3219C12.3762 5.36531 12.15 5.34303 11.9445 5.25788C11.7389 5.17274 11.5632 5.02854 11.4396 4.84354C11.316 4.65853 11.25 4.44102 11.25 4.21852C11.25 3.92015 11.3685 3.634 11.5795 3.42302C11.7905 3.21205 12.0766 3.09352 12.375 3.09352ZM5.62499 3.09352C5.84749 3.09352 6.065 3.1595 6.25001 3.28312C6.43501 3.40673 6.57921 3.58243 6.66435 3.788C6.7495 3.99357 6.77178 4.21977 6.72837 4.438C6.68497 4.65622 6.57782 4.85668 6.42049 5.01401C6.26315 5.17135 6.0627 5.27849 5.84447 5.3219C5.62624 5.36531 5.40004 5.34303 5.19447 5.25788C4.9889 5.17274 4.8132 5.02854 4.68959 4.84354C4.56597 4.65853 4.49999 4.44102 4.49999 4.21852C4.49999 3.92015 4.61852 3.634 4.8295 3.42302C5.04047 3.21205 5.32662 3.09352 5.62499 3.09352ZM14.6454 13.7508C14.9519 13.3315 15.1364 12.8355 15.1783 12.3178C15.2202 11.8001 15.118 11.2809 14.8829 10.8177C14.6477 10.3546 14.289 9.96559 13.8463 9.69387C13.4037 9.42215 12.8944 9.27832 12.375 9.27832C11.8556 9.27832 11.3463 9.42215 10.9037 9.69387C10.461 9.96559 10.1022 10.3546 9.86712 10.8177C9.63201 11.2809 9.52975 11.8001 9.57166 12.3178C9.61358 12.8355 9.79804 13.3315 10.1046 13.7508C9.70435 13.9518 9.33284 14.2055 8.99999 14.5052C8.66714 14.2055 8.29563 13.9518 7.89538 13.7508C8.20194 13.3315 8.3864 12.8355 8.42832 12.3178C8.47023 11.8001 8.36797 11.2809 8.13286 10.8177C7.89775 10.3546 7.53898 9.96559 7.09631 9.69387C6.65365 9.42215 6.14439 9.27832 5.62499 9.27832C5.10559 9.27832 4.59633 9.42215 4.15367 9.69387C3.711 9.96559 3.35223 10.3546 3.11712 10.8177C2.88201 11.2809 2.77975 11.8001 2.82166 12.3178C2.86358 12.8355 3.04804 13.3315 3.3546 13.7508C2.65405 14.1036 2.04507 14.6144 1.57569 15.2428C1.44124 15.4217 1.38337 15.6468 1.41482 15.8683C1.44627 16.0899 1.56446 16.29 1.74339 16.4244C1.92232 16.5589 2.14733 16.6167 2.36892 16.5853C2.59051 16.5538 2.79054 16.4357 2.92499 16.2567C3.23935 15.8374 3.64703 15.4971 4.11573 15.2627C4.58444 15.0283 5.10129 14.9063 5.62534 14.9063C6.14939 14.9063 6.66624 15.0283 7.13495 15.2627C7.60365 15.4971 8.01134 15.8374 8.32569 16.2567C8.46006 16.4356 8.66 16.5538 8.88152 16.5854C9.10304 16.6169 9.32801 16.5591 9.50694 16.4248C9.57021 16.3767 9.62653 16.3202 9.67429 16.2567C9.98864 15.8374 10.3963 15.4971 10.865 15.2627C11.3337 15.0283 11.8506 14.9063 12.3746 14.9063C12.8987 14.9063 13.4155 15.0283 13.8842 15.2627C14.353 15.4971 14.7606 15.8374 15.075 16.2567C15.1409 16.3469 15.2241 16.4231 15.3197 16.4809C15.4153 16.5387 15.5214 16.5769 15.6319 16.5934C15.7425 16.6098 15.8551 16.6042 15.9634 16.5767C16.0717 16.5493 16.1735 16.5006 16.2628 16.4335C16.3522 16.3664 16.4273 16.2823 16.4838 16.1859C16.5404 16.0896 16.5772 15.983 16.5923 15.8723C16.6073 15.7616 16.6002 15.649 16.5713 15.541C16.5425 15.4331 16.4925 15.332 16.4243 15.2435C15.9552 14.6147 15.3461 14.1036 14.6454 13.7508ZM5.62499 10.9685C5.84749 10.9685 6.065 11.0345 6.25001 11.1581C6.43501 11.2817 6.57921 11.4574 6.66435 11.663C6.7495 11.8686 6.77178 12.0948 6.72837 12.313C6.68497 12.5312 6.57782 12.7317 6.42049 12.889C6.26315 13.0463 6.0627 13.1535 5.84447 13.1969C5.62624 13.2403 5.40004 13.218 5.19447 13.1329C4.9889 13.0477 4.8132 12.9035 4.68959 12.7185C4.56597 12.5335 4.49999 12.316 4.49999 12.0935C4.49999 11.7952 4.61852 11.509 4.8295 11.298C5.04047 11.087 5.32662 10.9685 5.62499 10.9685ZM12.375 10.9685C12.5975 10.9685 12.815 11.0345 13 11.1581C13.185 11.2817 13.3292 11.4574 13.4144 11.663C13.4995 11.8686 13.5218 12.0948 13.4784 12.313C13.435 12.5312 13.3278 12.7317 13.1705 12.889C13.0131 13.0463 12.8127 13.1535 12.5945 13.1969C12.3762 13.2403 12.15 13.218 11.9445 13.1329C11.7389 13.0477 11.5632 12.9035 11.4396 12.7185C11.316 12.5335 11.25 12.316 11.25 12.0935C11.25 11.7952 11.3685 11.509 11.5795 11.298C11.7905 11.087 12.0766 10.9685 12.375 10.9685Z" fill="#7B61FF"/>
</svg>
